P3
30 30
255
208
169
132
200
155
105
191
139
84
197
154
106
192
144
92
197
153
105
196
149
99
188
138
87
197
154
106
195
148
96
197
152
100
191
144
93
190
140
89
196
148
97
191
145
95
193
142
88
198
154
107
204
164
119
193
146
95
193
143
90
189
140
90
194
146
96
198
154
107
199
157
108
197
151
99
190
142
92
195
150
100
198
154
105
193
144
92
196
145
90
207
172
136
199
154
105
192
138
80
207
169
125
198
154
105
199
153
103
196
151
103
191
144
95
189
143
94
197
151
99
195
149
99
191
147
102
199
155
107
198
155
107
193
142
90
189
145
97
198
154
106
197
153
103
192
145
96
191
140
86
196
146
91
190
140
87
196
151
102
198
154
104
190
145
96
195
147
94
190
143
92
199
151
99
197
152
104
198
152
102
208
173
140
191
143
92
197
143
86
204
162
114
193
148
99
194
149
100
195
150
99
195
153
106
194
145
90
197
152
103
198
160
116
189
145
101
195
149
100
194
149
102
196
145
92
196
150
100
187
137
86
192
143
89
196
150
101
193
142
87
196
149
98
197
150
98
191
144
93
199
155
107
198
149
97
198
150
95
196
149
98
199
154
103
188
138
86
188
139
90
203
166
132
191
142
91
191
140
88
198
150
98
191
144
96
189
142
91
194
151
105
195
150
102
195
149
98
191
144
94
194
156
113
195
154
110
204
164
121
200
150
98
202
159
113
199
157
111
194
149
103
194
145
94
195
148
97
199
152
98
197
151
102
191
143
93
198
150
94
194
147
97
193
143
89
195
144
89
193
144
89
189
144
94
191
141
89
200
155
106
208
168
131
186
137
87
198
152
103
195
150
101
199
157
110
199
157
110
189
143
97
195
148
97
192
147
97
185
134
82
187
140
93
195
147
97
196
148
96
197
149
97
197
147
95
197
148
97
192
144
92
191
143
90
194
145
93
200
153
101
193
146
96
202
159
110
198
152
101
193
144
94
194
146
95
197
149
98
192
141
84
195
149
99
195
147
98
191
146
99
207
170
133
203
159
109
197
151
102
193
148
99
196
153
106
190
142
92
195
153
108
193
146
96
195
150
101
190
144
95
197
151
101
198
152
101
198
150
97
202
156
105
205
161
111
203
160
111
194
145
92
188
142
95
189
139
88
196
147
93
198
154
106
188
140
90
190
141
90
192
147
99
195
144
89
183
139
93
197
150
99
190
139
86
192
142
90
194
145
93
205
170
136
194
146
95
188
137
84
195
151
103
193
146
94
195
149
99
196
152
103
196
150
100
195
149
99
190
145
99
192
144
94
193
145
95
187
139
90
202
157
105
194
144
93
201
156
105
193
148
99
196
150
101
192
144
93
193
142
86
196
149
97
198
154
104
191
143
92
185
137
87
195
150
100
195
148
97
198
150
95
193
148
101
189
139
87
192
147
98
207
173
140
197
152
104
191
142
92
193
147
98
195
149
99
194
149
99
192
147
98
198
158
112
192
145
97
188
143
96
201
159
112
192
144
95
200
156
109
200
156
107
192
145
97
196
149
99
190
146
99
182
138
91
191
144
92
190
141
88
189
138
83
197
152
103
192
145
94
190
141
91
197
151
102
199
153
100
200
156
107
193
148
101
191
146
98
183
135
86
196
160
128
200
159
113
191
144
95
193
148
101
194
152
106
194
147
93
199
155
106
202
161
113
194
150
102
187
140
89
196
151
101
184
134
85
196
152
104
197
153
105
200
153
100
194
145
92
192
147
97
194
150
101
194
147
97
192
143
91
193
145
91
197
150
100
192
145
96
194
149
101
200
157
109
195
151
101
192
144
94
189
140
89
197
154
109
193
147
99
198
162
130
197
152
100
195
149
100
200
157
110
186
140
92
192
145
93
185
137
86
196
155
108
192
145
93
197
150
100
197
148
95
186
139
92
193
146
98
197
151
99
196
146
92
198
152
103
197
149
97
190
142
89
198
152
104
195
154
109
192
145
93
200
156
106
192
144
94
192
149
101
192
144
94
188
139
87
196
149
96
198
155
108
188
140
92
195
151
102
204
167
132
188
139
86
197
156
112
187
140
90
187
141
93
199
150
94
192
145
93
195
151
101
196
152
103
185
137
87
194
145
91
200
154
101
193
147
95
198
152
101
198
149
95
195
148
98
194
144
87
200
152
96
195
145
92
197
150
98
197
152
99
197
150
99
199
154
104
194
146
96
195
150
99
186
139
89
199
153
102
193
146
95
193
146
95
200
156
103
208
173
141
194
146
94
198
156
112
193
145
95
196
152
105
198
151
98
194
147
95
186
136
85
194
148
95
196
154
106
193
146
96
197
153
103
194
147
94
201
156
105
202
158
106
201
155
105
188
140
87
198
148
94
195
150
103
192
145
95
196
149
97
198
155
108
198
154
106
196
149
98
200
159
112
189
140
88
192
145
94
196
151
102
194
146
92
195
148
97
202
166
132
191
140
88
197
147
96
200
158
113
196
150
99
201
159
109
192
145
93
192
146
96
195
151
103
196
152
104
192
145
94
202
160
112
200
156
105
195
150
100
200
157
108
197
150
96
198
150
96
189
137
83
193
144
93
196
149
97
196
152
103
194
149
100
200
157
109
197
150
98
198
154
106
191
142
88
193
145
93
192
143
94
193
146
97
196
150
101
203
167
132
194
145
94
193
146
96
197
153
106
192
146
95
195
148
96
198
155
105
190
143
92
195
150
101
195
153
108
188
139
89
204
163
114
200
158
112
193
147
97
200
157
108
195
150
101
196
149
96
190
142
90
198
152
103
198
154
105
197
153
103
197
151
99
193
147
97
199
153
100
200
153
100
197
149
98
194
147
98
199
155
106
191
145
97
199
158
114
202
164
128
191
144
94
197
150
99
203
162
115
198
153
103
190
142
90
196
150
99
194
150
103
191
145
94
197
157
113
200
157
111
198
154
101
197
151
99
192
145
92
197
154
106
195
150
97
193
149
100
201
158
109
195
148
96
198
155
109
199
156
106
201
157
108
197
148
98
196
146
93
191
140
88
195
144
91
194
147
98
192
143
93
189
142
95
198
152
101
200
161
126
190
140
89
192
144
92
195
148
97
196
151
101
193
145
92
196
150
97
195
153
104
195
149
96
199
158
109
191
147
102
194
147
93
200
156
109
195
148
94
199
154
103
202
157
104
195
148
98
195
148
95
195
149
99
201
155
105
200
156
105
200
154
103
199
152
102
202
155
104
199
150
100
204
158
110
201
154
105
197
149
97
201
155
102
196
150
100
201
164
130
190
142
90
194
153
107
194
150
98
195
154
107
195
152
107
189
142
91
188
141
93
195
152
103
198
157
111
193
148
97
197
151
96
192
146
96
195
150
99
194
149
98
195
152
105
192
145
94
194
146
94
189
142
92
196
152
103
194
146
95
192
143
91
193
148
98
204
160
109
199
152
102
199
151
101
204
162
115
200
154
104
194
147
96
196
150
96
205
167
133
200
159
114
193
146
93
193
150
103
193
154
110
192
144
92
193
150
104
188
146
100
198
155
108
198
157
112
193
148
98
199
152
99
199
155
103
188
141
90
193
146
97
196
149
98
195
148
96
190
140
87
196
151
100
192
146
96
196
150
100
197
149
97
196
146
94
198
150
96
193
141
89
195
150
104
202
157
106
192
143
93
199
153
104
202
159
110
205
170
134
191
142
90
197
151
100
199
156
108
196
152
104
195
151
103
197
151
100
186
137
85
194
149
99
188
139
86
203
155
100
198
150
99
206
161
109
206
162
111
190
143
93
198
154
104
196
148
96
194
146
93
196
150
99
199
155
105
187
138
88
193
147
98
202
154
102
199
152
99
197
148
99
196
152
107
203
160
115
201
153
101
194
147
96
194
149
102
206
168
132
200
158
113
203
161
115
199
153
102
196
146
93
195
149
100
190
141
88
189
138
84
197
151
100
196
152
102
198
153
106
196
149
96
192
146
94
192
142
89
194
145
92
198
152
99
198
154
105
198
153
103
200
157
113
194
145
92
197
149
98
197
151
102
197
149
95
199
150
94
198
154
108
198
156
113
194
145
95
202
157
109
198
154
110
199
155
107
207
170
133
190
142
91
195
149
99
193
146
98
202
160
113
196
151
101
198
152
101
193
139
81
195
149
98
198
154
104
196
151
102
199
157
108
197
152
102
195
146
92
193
145
95
195
147
95
200
153
102
203
161
114
194
150
101
197
149
95
195
146
94
193
144
94
197
149
98
195
144
88
198
153
104
195
145
91
205
159
109
204
160
111
195
148
97
194
144
90
205
164
127
195
148
97
194
142
88
202
157
105
202
159
109
197
156
113
197
156
107
190
142
89
193
141
84
198
151
99
192
143
91
189
141
87
193
147
96
195
148
96
200
157
109
200
157
108
185
136
86
194
151
105
195
151
102
200
151
98
198
151
101
196
148
97
189
138
86
193
143
92
200
156
110
203
157
107
197
151
100
196
149
97
189
141
91
188
138
87
203
164
129
200
154
105
197
151
103
196
147
96
197
154
106
197
157
114
195
151
101
196
152
103
188
137
83
195
150
101
194
147
96
197
154
104
194
147
95
198
149
94
192
142
89
199
151
97
196
150
100
198
150
99
196
148
96
195
144
88
201
156
106
195
147
96
190
140
87
197
153
106
192
145
97
191
141
88
197
147
95
200
153
102
197
150
99
197
151
101
206
170
136
201
157
111
195
149
101
195
151
106
196
155
111
195
148
97
199
157
109
192
147
99
199
153
101
199
157
108
199
155
104
189
141
92
193
144
92
190
140
86
194
144
92
195
145
93
196
150
101
198
154
105
198
154
105
193
146
94
201
155
103
202
157
107
196
149
98
196
150
101
191
141
88
201
157
106
195
144
89
195
150
103
197
149
95
194
147
98
204
164
128
201
152
99
192
146
97
199
159
116
200
157
108
196
147
95
197
155
104
194
146
93
197
149
97
202
161
114
192
145
95
197
148
94
199
153
102
195
146
95
193
144
92
195
147
94
193
145
94
199
156
109
201
165
124
197
160
121
195
151
105
197
152
104
194
146
94
198
151
101
198
152
102
202
156
103
193
143
89
199
155
106
200
158
116
198
151
99
212
172
134
192
144
93
200
157
109
200
155
104
201
158
111
199
154
107
200
158
114
196
147
91
189
142
92
202
159
111
190
140
88
195
143
85
200
156
109
194
145
92
195
146
94
192
143
90
196
148
96
196
150
101
198
153
103
196
150
102
199
162
123
190
143
96
195
150
104
198
152
100
195
149
99
199
154
104
189
138
84
198
154
105
195
145
90
196
145
89
203
166
132
197
152
102
187
140
94
198
155
108
195
149
100
194
149
99
194
151
102
199
154
98
196
150
99
195
148
98
201
155
102
196
149
97
195
151
104
194
148
99
191
144
93
195
146
94
196
152
102
202
156
105
198
153
102
191
142
89
194
148
97
199
155
106
198
154
106
199
154
103
196
152
104
194
149
98
193
147
97
199
154
104
195
147
95
201
160
115
205
170
137
191
147
98
197
151
99
201
156
105
194
152
103
192
148
99
188
140
89
194
149
99
194
146
93
203
160
112
195
150
101
191
144
94
196
154
109
200
158
110
191
146
100
201
159
111
190
145
94
199
154
103
194
146
91
194
153
109
198
162
119
191
145
96
191
150
107
194
150
99
201
160
113
193
145
91
198
151
99
200
155
104
197
149
95
205
166
123
201
162
128
199
152
100
199
152
99
195
147
95
196
148
95
193
148
100
193
148
99
195
148
95
184
133
82
191
142
94
190
140
87
194
149
98
196
151
101
194
149
100
199
156
110
199
156
110
202
159
113
194
144
89
189
143
96
190
151
109
191
146
97
200
155
105
194
152
108
196
157
115
203
165
120
192
145
96
199
154
103
190
140
90
195
145
90
193
145
92
207
170
134
199
153
100
190
141
89
200
154
102
191
145
96
185
135
86
192
146
97
193
149
101
194
145
92
198
150
98
188
143
93
196
152
106
187
139
87
193
145
93
193
146
97
191
143
93
199
155
108
198
151
99
196
150
99
188
138
86
198
152
103
190
145
98
199
162
122
191
146
102
203
163
114
198
152
102
204
160
110
198
156
107
196
151
100
189
136
80
