P3
30 30
255
240
240
240
233
233
233
224
224
224
232
232
232
226
226
226
231
231
231
229
229
229
224
224
224
232
232
232
229
229
229
231
231
231
226
226
226
225
225
225
229
229
229
227
227
227
226
226
226
232
232
232
237
237
237
228
228
228
226
226
226
225
225
225
228
228
228
232
232
232
233
233
233
230
230
230
226
226
226
230
230
230
232
232
232
227
227
227
228
228
228
241
241
241
232
232
232
224
224
224
240
240
240
232
232
232
231
231
231
230
230
230
226
226
226
226
226
226
230
230
230
229
229
229
228
228
228
233
233
233
233
233
233
226
226
226
227
227
227
232
232
232
231
231
231
227
227
227
225
225
225
228
228
228
225
225
225
230
230
230
232
232
232
227
227
227
228
228
228
226
226
226
230
230
230
231
231
231
231
231
231
242
242
242
226
226
226
226
226
226
236
236
236
229
229
229
229
229
229
230
230
230
231
231
231
227
227
227
231
231
231
235
235
235
227
227
227
229
229
229
229
229
229
228
228
228
230
230
230
223
223
223
226
226
226
230
230
230
226
226
226
229
229
229
230
230
230
226
226
226
233
233
233
230
230
230
230
230
230
229
229
229
232
232
232
224
224
224
224
224
224
238
238
238
226
226
226
225
225
225
230
230
230
227
227
227
225
225
225
230
230
230
230
230
230
229
229
229
226
226
226
233
233
233
232
232
232
237
237
237
230
230
230
235
235
235
234
234
234
229
229
229
228
228
228
229
229
229
231
231
231
230
230
230
226
226
226
230
230
230
228
228
228
226
226
226
227
227
227
226
226
226
226
226
226
225
225
225
233
233
233
240
240
240
223
223
223
231
231
231
230
230
230
234
234
234
234
234
234
226
226
226
229
229
229
228
228
228
221
221
221
225
225
225
229
229
229
229
229
229
229
229
229
229
229
229
229
229
229
226
226
226
226
226
226
228
228
228
231
231
231
228
228
228
235
235
235
231
231
231
227
227
227
228
228
228
230
230
230
225
225
225
229
229
229
229
229
229
228
228
228
240
240
240
235
235
235
230
230
230
229
229
229
231
231
231
226
226
226
231
231
231
228
228
228
230
230
230
226
226
226
230
230
230
231
231
231
230
230
230
233
233
233
236
236
236
235
235
235
228
228
228
225
225
225
224
224
224
229
229
229
232
232
232
225
225
225
225
225
225
228
228
228
227
227
227
224
224
224
230
230
230
224
224
224
226
226
226
228
228
228
240
240
240
228
228
228
223
223
223
230
230
230
228
228
228
229
229
229
231
231
231
230
230
230
229
229
229
227
227
227
227
227
227
228
228
228
224
224
224
234
234
234
227
227
227
233
233
233
229
229
229
230
230
230
227
227
227
226
226
226
229
229
229
232
232
232
226
226
226
223
223
223
230
230
230
229
229
229
230
230
230
229
229
229
224
224
224
228
228
228
242
242
242
231
231
231
226
226
226
228
228
228
229
229
229
229
229
229
228
228
228
234
234
234
228
228
228
226
226
226
235
235
235
227
227
227
233
233
233
233
233
233
228
228
228
229
229
229
228
228
228
223
223
223
226
226
226
225
225
225
224
224
224
231
231
231
227
227
227
225
225
225
230
230
230
231
231
231
233
233
233
229
229
229
228
228
228
222
222
222
235
235
235
234
234
234
226
226
226
229
229
229
231
231
231
228
228
228
233
233
233
235
235
235
230
230
230
224
224
224
230
230
230
221
221
221
231
231
231
231
231
231
231
231
231
228
228
228
228
228
228
230
230
230
228
228
228
226
226
226
227
227
227
230
230
230
227
227
227
229
229
229
234
234
234
230
230
230
227
227
227
225
225
225
232
232
232
228
228
228
236
236
236
231
231
231
229
229
229
234
234
234
224
224
224
227
227
227
223
223
223
232
232
232
227
227
227
230
230
230
229
229
229
224
224
224
228
228
228
230
230
230
228
228
228
231
231
231
229
229
229
225
225
225
231
231
231
231
231
231
227
227
227
233
233
233
227
227
227
229
229
229
227
227
227
224
224
224
229
229
229
233
233
233
225
225
225
230
230
230
238
238
238
224
224
224
233
233
233
224
224
224
225
225
225
230
230
230
227
227
227
230
230
230
231
231
231
223
223
223
228
228
228
232
232
232
228
228
228
231
231
231
230
230
230
229
229
229
227
227
227
231
231
231
228
228
228
230
230
230
231
231
231
230
230
230
232
232
232
228
228
228
230
230
230
224
224
224
231
231
231
228
228
228
228
228
228
233
233
233
242
242
242
228
228
228
233
233
233
228
228
228
231
231
231
230
230
230
228
228
228
222
222
222
229
229
229
231
231
231
228
228
228
231
231
231
228
228
228
233
233
233
234
234
234
233
233
233
224
224
224
229
229
229
230
230
230
227
227
227
229
229
229
233
233
233
232
232
232
229
229
229
234
234
234
225
225
225
227
227
227
230
230
230
228
228
228
229
229
229
238
238
238
225
225
225
229
229
229
234
234
234
230
230
230
234
234
234
227
227
227
228
228
228
230
230
230
231
231
231
227
227
227
235
235
235
233
233
233
230
230
230
234
234
234
230
230
230
230
230
230
223
223
223
227
227
227
229
229
229
231
231
231
229
229
229
234
234
234
230
230
230
232
232
232
226
226
226
227
227
227
226
226
226
228
228
228
230
230
230
238
238
238
228
228
228
228
228
228
231
231
231
228
228
228
229
229
229
233
233
233
226
226
226
230
230
230
231
231
231
224
224
224
236
236
236
234
234
234
228
228
228
234
234
234
230
230
230
229
229
229
225
225
225
231
231
231
232
232
232
231
231
231
230
230
230
228
228
228
231
231
231
231
231
231
230
230
230
228
228
228
233
233
233
227
227
227
234
234
234
237
237
237
226
226
226
230
230
230
236
236
236
231
231
231
225
225
225
230
230
230
230
230
230
227
227
227
233
233
233
234
234
234
232
232
232
230
230
230
227
227
227
232
232
232
230
230
230
229
229
229
234
234
234
229
229
229
233
233
233
233
233
233
234
234
234
229
229
229
228
228
228
225
225
225
227
227
227
228
228
228
226
226
226
226
226
226
231
231
231
236
236
236
225
225
225
226
226
226
229
229
229
230
230
230
227
227
227
230
230
230
231
231
231
229
229
229
234
234
234
228
228
228
228
228
228
233
233
233
229
229
229
232
232
232
234
234
234
229
229
229
229
229
229
229
229
229
233
233
233
233
233
233
232
232
232
231
231
231
233
233
233
230
230
230
234
234
234
232
232
232
229
229
229
233
233
233
230
230
230
237
237
237
225
225
225
231
231
231
230
230
230
231
231
231
231
231
231
225
225
225
225
225
225
231
231
231
233
233
233
229
229
229
230
230
230
228
228
228
230
230
230
229
229
229
231
231
231
227
227
227
228
228
228
225
225
225
231
231
231
228
228
228
226
226
226
229
229
229
235
235
235
231
231
231
231
231
231
236
236
236
232
232
232
228
228
228
230
230
230
239
239
239
234
234
234
228
228
228
230
230
230
231
231
231
226
226
226
230
230
230
228
228
228
233
233
233
233
233
233
229
229
229
231
231
231
233
233
233
225
225
225
228
228
228
229
229
229
229
229
229
225
225
225
230
230
230
228
228
228
230
230
230
229
229
229
228
228
228
230
230
230
225
225
225
230
230
230
234
234
234
226
226
226
231
231
231
235
235
235
240
240
240
226
226
226
230
230
230
233
233
233
231
231
231
230
230
230
230
230
230
223
223
223
229
229
229
224
224
224
233
233
233
230
230
230
236
236
236
236
236
236
226
226
226
232
232
232
229
229
229
228
228
228
230
230
230
233
233
233
224
224
224
228
228
228
232
232
232
231
231
231
229
229
229
231
231
231
235
235
235
231
231
231
228
228
228
229
229
229
239
239
239
234
234
234
236
236
236
231
231
231
228
228
228
229
229
229
225
225
225
224
224
224
230
230
230
231
231
231
231
231
231
229
229
229
228
228
228
226
226
226
228
228
228
231
231
231
232
232
232
231
231
231
234
234
234
228
228
228
230
230
230
230
230
230
229
229
229
230
230
230
232
232
232
233
233
233
228
228
228
234
234
234
232
232
232
233
233
233
240
240
240
226
226
226
229
229
229
228
228
228
235
235
235
230
230
230
231
231
231
224
224
224
229
229
229
232
232
232
230
230
230
233
233
233
231
231
231
228
228
228
228
228
228
228
228
228
231
231
231
236
236
236
230
230
230
229
229
229
228
228
228
227
227
227
230
230
230
227
227
227
231
231
231
228
228
228
235
235
235
235
235
235
229
229
229
227
227
227
237
237
237
229
229
229
226
226
226
234
234
234
235
235
235
233
233
233
233
233
233
225
225
225
225
225
225
230
230
230
226
226
226
225
225
225
228
228
228
229
229
229
234
234
234
234
234
234
222
222
222
230
230
230
230
230
230
231
231
231
230
230
230
229
229
229
224
224
224
226
226
226
233
233
233
234
234
234
230
230
230
229
229
229
225
225
225
224
224
224
237
237
237
232
232
232
230
230
230
229
229
229
232
232
232
233
233
233
230
230
230
231
231
231
223
223
223
230
230
230
228
228
228
232
232
232
228
228
228
229
229
229
226
226
226
230
230
230
230
230
230
230
230
230
229
229
229
227
227
227
233
233
233
229
229
229
225
225
225
231
231
231
228
228
228
225
225
225
229
229
229
231
231
231
230
230
230
230
230
230
240
240
240
234
234
234
229
229
229
230
230
230
233
233
233
229
229
229
233
233
233
228
228
228
231
231
231
233
233
233
233
233
233
225
225
225
227
227
227
225
225
225
227
227
227
228
228
228
230
230
230
232
232
232
232
232
232
228
228
228
233
233
233
234
234
234
229
229
229
230
230
230
225
225
225
234
234
234
227
227
227
230
230
230
229
229
229
228
228
228
237
237
237
231
231
231
228
228
228
234
234
234
234
234
234
229
229
229
232
232
232
228
228
228
229
229
229
235
235
235
227
227
227
229
229
229
231
231
231
228
228
228
227
227
227
228
228
228
228
228
228
233
233
233
237
237
237
235
235
235
230
230
230
231
231
231
228
228
228
230
230
230
231
231
231
233
233
233
226
226
226
233
233
233
234
234
234
230
230
230
242
242
242
227
227
227
234
234
234
233
233
233
234
234
234
232
232
232
234
234
234
228
228
228
225
225
225
235
235
235
225
225
225
226
226
226
233
233
233
228
228
228
228
228
228
226
226
226
229
229
229
230
230
230
231
231
231
230
230
230
236
236
236
226
226
226
230
230
230
231
231
231
229
229
229
232
232
232
224
224
224
232
232
232
228
228
228
228
228
228
238
238
238
231
231
231
225
225
225
233
233
233
229
229
229
229
229
229
230
230
230
232
232
232
230
230
230
229
229
229
233
233
233
229
229
229
230
230
230
229
229
229
226
226
226
228
228
228
231
231
231
233
233
233
231
231
231
226
226
226
229
229
229
233
233
233
232
232
232
232
232
232
231
231
231
229
229
229
228
228
228
232
232
232
228
228
228
235
235
235
240
240
240
228
228
228
230
230
230
233
233
233
230
230
230
229
229
229
225
225
225
229
229
229
228
228
228
235
235
235
230
230
230
226
226
226
232
232
232
234
234
234
228
228
228
234
234
234
227
227
227
232
232
232
228
228
228
231
231
231
236
236
236
227
227
227
230
230
230
230
230
230
235
235
235
227
227
227
230
230
230
233
233
233
229
229
229
238
238
238
236
236
236
231
231
231
231
231
231
228
228
228
229
229
229
229
229
229
229
229
229
229
229
229
221
221
221
226
226
226
225
225
225
229
229
229
230
230
230
229
229
229
233
233
233
233
233
233
235
235
235
227
227
227
226
226
226
230
230
230
228
228
228
233
233
233
231
231
231
233
233
233
237
237
237
227
227
227
232
232
232
225
225
225
228
228
228
227
227
227
240
240
240
231
231
231
225
225
225
232
232
232
227
227
227
222
222
222
228
228
228
229
229
229
228
228
228
230
230
230
226
226
226
231
231
231
224
224
224
227
227
227
228
228
228
226
226
226
233
233
233
230
230
230
230
230
230
224
224
224
231
231
231
227
227
227
236
236
236
228
228
228
236
236
236
231
231
231
235
235
235
233
233
233
230
230
230
222
222
222
