P3
25 25
255
243
124
9
250
127
4
253
129
2
246
126
7
240
123
11
238
121
13
249
127
5
246
125
8
235
120
15
46
46
46
46
46
46
46
46
46
46
46
46
46
46
46
46
46
46
43
65
108
3
131
252
0
132
255
0
132
255
1
132
254
0
132
255
0
132
255
1
132
254
15
122
235
21
115
221
252
129
2
255
130
0
255
130
0
255
130
0
255
130
0
255
130
0
255
130
0
255
130
0
250
127
4
46
46
46
46
46
46
46
46
46
46
46
46
46
46
46
46
46
46
43
65
108
0
132
254
0
132
255
0
132
255
0
132
255
0
132
255
0
132
255
0
132
255
0
132
255
10
126
242
253
129
2
255
130
0
255
130
0
255
130
0
255
130
0
255
130
0
255
130
0
255
130
0
253
129
2
46
46
46
46
46
46
46
46
46
46
46
46
46
46
46
46
46
46
46
46
46
1
131
254
0
132
255
0
132
255
0
132
255
0
132
255
0
132
255
0
132
255
0
132
255
5
129
249
244
124
9
255
130
0
255
130
0
255
130
0
255
130
0
250
127
4
253
129
2
255
130
0
247
126
7
46
46
46
46
46
46
46
46
46
46
46
46
46
46
46
46
46
46
46
46
46
1
131
253
0
132
255
0
132
255
0
132
255
0
132
255
0
132
255
0
132
255
0
132
255
9
127
244
244
125
9
255
130
0
254
130
1
255
130
0
255
130
0
253
129
2
254
130
1
255
130
0
239
122
13
46
46
46
46
46
46
46
46
46
46
46
46
46
46
46
46
46
46
46
46
46
4
130
250
0
132
255
0
132
255
0
132
255
0
132
255
0
132
255
1
132
254
0
132
255
14
123
237
250
128
4
255
130
0
255
130
0
255
130
0
255
130
0
255
130
0
255
130
0
255
130
0
251
128
3
46
46
46
46
46
46
46
46
46
46
46
46
46
46
46
46
46
46
46
46
46
2
131
253
0
132
255
0
132
255
0
132
255
0
132
255
0
132
255
0
132
255
0
132
255
13
123
238
245
125
8
255
130
0
255
130
0
255
130
0
255
130
0
255
130
0
255
130
0
255
130
0
248
127
5
46
46
46
46
46
46
46
46
46
46
46
46
46
46
46
46
46
46
46
46
46
4
130
251
0
132
255
0
132
255
0
132
255
0
132
255
0
132
255
0
132
255
0
132
255
15
123
236
227
117
19
246
125
8
250
128
4
244
124
9
246
126
7
253
129
1
255
130
0
254
130
1
242
124
10
46
46
46
46
46
46
46
46
46
46
46
46
46
46
46
46
46
46
46
46
46
10
126
242
1
132
254
0
132
255
1
132
254
0
132
254
0
132
255
0
132
255
0
132
254
19
118
226
46
46
46
46
46
46
46
46
46
46
46
46
46
46
46
46
46
46
108
64
43
108
64
43
108
64
43
46
46
46
46
46
46
46
46
46
46
46
46
46
46
46
46
46
46
46
46
46
43
65
108
40
78
138
37
87
159
32
99
186
27
108
204
23
114
217
23
114
217
30
104
196
37
86
157
46
46
46
46
46
46
46
46
46
46
46
46
46
46
46
46
46
46
46
46
46
46
46
46
46
46
46
46
46
46
46
46
46
46
46
46
46
46
46
46
46
46
46
46
46
46
46
46
46
46
46
46
46
46
46
46
46
46
46
46
46
46
46
46
46
46
46
46
46
46
46
46
46
46
46
46
46
46
46
46
46
46
46
46
46
46
46
46
46
46
46
46
46
46
46
46
46
46
46
46
46
46
46
46
46
46
46
46
46
46
46
46
46
46
46
46
46
46
46
46
46
46
46
46
46
46
46
46
46
46
46
46
46
46
46
46
46
46
46
46
46
46
46
46
46
46
46
46
46
46
46
46
46
46
46
46
46
46
46
46
46
46
46
46
46
46
46
46
46
46
46
46
46
46
46
46
46
46
46
46
46
46
46
46
46
46
46
46
46
46
46
46
46
46
46
46
46
46
46
46
46
46
46
46
46
46
46
46
46
46
46
46
46
46
46
46
46
46
46
46
46
46
46
46
46
46
46
46
46
46
46
46
46
46
46
46
46
46
46
46
46
46
46
46
46
46
46
46
46
46
46
46
46
46
46
46
46
46
46
46
46
46
46
46
46
46
46
46
46
46
46
46
46
46
46
46
46
46
46
46
46
46
46
46
46
46
46
46
46
46
46
46
46
46
46
46
46
46
46
46
46
46
46
46
46
46
46
46
46
46
46
46
46
46
46
46
46
46
46
46
46
46
46
46
46
46
46
46
46
46
46
46
46
46
46
46
46
46
46
46
46
46
46
46
46
46
46
46
46
46
46
46
46
46
46
46
46
46
46
46
46
46
46
46
46
46
46
46
46
46
46
46
46
46
46
46
46
46
46
46
46
46
46
46
46
46
46
46
46
46
46
46
46
46
46
46
46
46
46
46
46
46
46
46
46
46
46
46
46
46
46
46
46
46
46
46
46
46
46
46
46
46
46
46
46
46
46
46
46
46
46
46
46
46
46
46
46
46
46
46
46
46
46
46
46
46
46
46
46
46
46
46
46
46
46
46
46
46
46
46
46
46
46
46
46
46
46
46
46
46
46
46
46
46
46
46
46
46
46
46
46
46
46
46
46
46
46
46
46
46
46
46
46
46
46
46
46
46
46
46
46
46
46
46
46
46
46
46
46
46
46
46
46
46
46
46
46
46
46
46
46
46
46
46
46
46
46
46
46
46
46
46
46
46
46
46
46
46
46
46
46
46
46
46
46
46
46
46
46
46
46
46
46
46
46
46
46
46
46
46
46
46
46
46
46
46
46
46
46
46
46
46
46
46
46
46
46
46
46
46
46
46
46
46
46
46
46
46
46
46
46
46
46
46
46
46
46
46
46
46
46
46
46
46
46
46
46
46
46
46
46
46
46
46
46
46
46
46
46
46
46
46
46
46
46
46
46
46
46
46
46
46
46
46
46
46
46
46
46
46
46
46
46
46
46
46
46
46
46
46
46
46
46
46
46
46
46
46
46
46
46
46
46
46
46
46
46
46
46
46
46
46
46
46
46
46
46
46
46
46
46
46
46
46
46
46
46
46
46
46
46
46
46
46
46
46
46
46
46
46
46
46
46
46
46
46
46
46
46
46
46
46
46
46
46
46
46
46
46
46
46
46
46
46
46
46
46
46
46
46
46
46
46
46
46
46
46
46
46
46
46
46
46
46
46
46
46
46
46
46
46
46
46
46
46
46
46
46
46
46
46
46
46
46
46
46
46
46
46
46
46
46
46
46
46
46
46
46
46
46
46
46
46
46
46
46
46
46
46
46
46
46
46
46
46
46
46
46
46
46
46
46
46
46
46
46
46
46
46
46
46
46
46
46
46
46
46
46
46
46
46
46
46
46
46
46
46
46
46
46
46
46
46
46
46
46
46
46
46
46
46
46
46
46
46
46
46
46
46
46
46
46
46
46
46
46
46
46
46
46
46
46
46
46
46
46
46
46
46
46
46
46
46
46
46
46
46
46
46
46
46
46
46
46
46
46
46
46
46
46
46
46
46
46
46
46
46
46
46
46
46
46
46
46
46
46
46
46
46
46
46
46
46
46
46
46
46
46
46
46
46
46
46
46
46
46
46
46
46
46
46
46
46
46
46
46
46
46
46
46
46
46
46
46
46
46
46
46
46
46
46
46
46
46
46
46
46
46
46
46
46
46
46
46
46
46
46
46
46
46
46
46
46
46
46
46
46
46
46
46
46
46
46
46
46
46
46
46
46
46
46
46
46
46
46
46
46
46
46
46
46
46
46
46
46
46
46
46
46
46
46
46
46
46
46
46
46
46
46
46
46
46
46
46
46
46
46
46
46
46
46
46
46
46
46
46
46
46
46
46
46
46
46
46
46
46
46
46
46
46
46
46
46
46
46
46
46
46
46
46
46
46
46
46
46
46
46
46
46
46
46
46
46
46
46
46
46
46
46
46
46
46
46
46
46
46
46
46
46
46
46
46
46
46
46
46
46
46
46
46
46
46
46
46
46
46
46
46
46
46
46
46
46
46
46
46
46
46
46
46
46
46
46
46
46
46
46
46
46
46
46
46
46
46
46
46
46
46
46
46
46
46
46
46
46
46
46
46
46
46
46
46
46
46
46
46
46
46
46
46
46
46
46
46
46
46
46
46
46
46
46
46
46
46
46
46
46
46
46
46
46
46
46
46
46
46
46
46
46
46
46
46
46
46
46
46
46
46
46
46
